<svg width="28" height="28" viewBox="0 0 28 28" fill="none" xmlns="http://www.w3.org/2000/svg">
<circle cx="14" cy="14" r="14" fill="#FBA63C"/>
<path d="M15.3611 7.88899C15.2951 7.56561 15.0106 7.33344 14.6806 7.33344H9.69444C9.31091 7.33344 9 7.64435 9 8.02788V18.4445C9 18.8281 9.31091 19.139 9.69444 19.139C10.078 19.139 10.3889 18.8281 10.3889 18.4445V14.2779H14.2778L14.4444 15.1112C14.5075 15.4364 14.7938 15.6701 15.125 15.6668H18.7222C19.1058 15.6668 19.4167 15.3559 19.4167 14.9723V9.41677C19.4167 9.03324 19.1058 8.72232 18.7222 8.72232H15.5278L15.3611 7.88899Z" fill="white"/>
</svg>
