<svg width="36" height="41" viewBox="0 0 36 41" fill="none" xmlns="http://www.w3.org/2000/svg">
<path fill-rule="evenodd" clip-rule="evenodd" d="M0 0.950002C0 0.425331 0.42533 0 0.95 0L20.5 0L35.875 15.375V40.05C35.875 40.5747 35.4497 41 34.925 41H0.950001C0.42533 41 0 40.5747 0 40.05V0.950002Z" fill="#F85640"/>
<path d="M12.1572 29.6912C12.1572 30.0645 12.0672 30.4145 11.8872 30.7412C11.7139 31.0679 11.4372 31.3312 11.0572 31.5312C10.6839 31.7312 10.2105 31.8312 9.6372 31.8312H8.4672V34.5112H7.0672V27.5312H9.6372C10.1772 27.5312 10.6372 27.6245 11.0172 27.8112C11.3972 27.9979 11.6805 28.2545 11.8672 28.5812C12.0605 28.9079 12.1572 29.2779 12.1572 29.6912ZM9.5772 30.7012C9.96386 30.7012 10.2505 30.6145 10.4372 30.4412C10.6239 30.2612 10.7172 30.0112 10.7172 29.6912C10.7172 29.0112 10.3372 28.6712 9.5772 28.6712H8.4672V30.7012H9.5772ZM16.0912 27.5312C16.8245 27.5312 17.4678 27.6745 18.0212 27.9612C18.5812 28.2479 19.0112 28.6579 19.3112 29.1912C19.6178 29.7179 19.7712 30.3312 19.7712 31.0312C19.7712 31.7312 19.6178 32.3445 19.3112 32.8712C19.0112 33.3912 18.5812 33.7945 18.0212 34.0812C17.4678 34.3679 16.8245 34.5112 16.0912 34.5112H13.6512V27.5312H16.0912ZM16.0412 33.3212C16.7745 33.3212 17.3412 33.1212 17.7412 32.7212C18.1412 32.3212 18.3412 31.7579 18.3412 31.0312C18.3412 30.3045 18.1412 29.7379 17.7412 29.3312C17.3412 28.9179 16.7745 28.7112 16.0412 28.7112H15.0512V33.3212H16.0412ZM25.6292 27.5312V28.6612H22.7192V30.4512H24.9492V31.5612H22.7192V34.5112H21.3192V27.5312H25.6292Z" fill="white"/>
<path fill-rule="evenodd" clip-rule="evenodd" d="M20.5 0L35.875 15.375H21.45C20.9253 15.375 20.5 14.9497 20.5 14.425V0Z" fill="#D13F2B"/>
</svg>
