<svg width="19" height="19" viewBox="0 0 19 19" fill="none" xmlns="http://www.w3.org/2000/svg">
<path d="M9.897 18.968C9.36628 18.9695 8.85704 18.7585 8.483 18.382L0.645997 10.547C0.232469 10.1348 0.02047 9.56207 0.0659969 8.98L0.565997 2.414C0.637416 1.42568 1.42541 0.640667 2.414 0.572999L8.98 0.0729993C9.032 0.0619979 9.083 0.0619979 9.135 0.0619979C9.66465 0.0613636 10.1726 0.272327 10.546 0.647999L18.383 8.482C18.7582 8.8571 18.9691 9.36592 18.9691 9.8965C18.9691 10.4271 18.7582 10.9359 18.383 11.311L11.311 18.382C10.9368 18.7583 10.4277 18.9693 9.897 18.968ZM5.654 3.654C4.74882 3.65426 3.95666 4.26244 3.72259 5.13683C3.48853 6.01122 3.87091 6.93381 4.65491 7.38625C5.43891 7.83868 6.42904 7.70815 7.069 7.068L7.076 7.062L7.083 7.055L7.075 7.062C7.64343 6.48856 7.8113 5.62956 7.50056 4.88431C7.18982 4.13906 6.46143 3.65376 5.654 3.654Z" fill="#C4CAD3"/>
</svg>
