<svg width="35" height="40" viewBox="0 0 35 40" fill="none" xmlns="http://www.w3.org/2000/svg">
<path fill-rule="evenodd" clip-rule="evenodd" d="M0 0.95C0 0.42533 0.425329 0 0.95 0L20 0L35 15V39.05C35 39.5747 34.5747 40 34.05 40H0.950001C0.42533 40 0 39.5747 0 39.05V0.95Z" fill="#34A770"/>
<path d="M11.0914 33.8889L9.58144 31.5389L8.21144 33.8889H6.63144L8.83144 30.3689L6.60144 26.9089H8.21144L9.72144 29.2489L11.0814 26.9089H12.6614L10.4714 30.4189L12.7014 33.8889H11.0914ZM15.6669 32.7789H17.9669V33.8889H14.2669V26.9089H15.6669V32.7789ZM21.7667 33.9589C21.2801 33.9589 20.8401 33.8756 20.4467 33.7089C20.0601 33.5423 19.7534 33.3023 19.5267 32.9889C19.3001 32.6756 19.1834 32.3056 19.1767 31.8789H20.6767C20.6967 32.1656 20.7967 32.3923 20.9767 32.5589C21.1634 32.7256 21.4167 32.8089 21.7367 32.8089C22.0634 32.8089 22.3201 32.7323 22.5067 32.5789C22.6934 32.4189 22.7867 32.2123 22.7867 31.9589C22.7867 31.7523 22.7234 31.5823 22.5967 31.4489C22.4701 31.3156 22.3101 31.2123 22.1167 31.1389C21.9301 31.0589 21.6701 30.9723 21.3367 30.8789C20.8834 30.7456 20.5134 30.6156 20.2267 30.4889C19.9467 30.3556 19.7034 30.1589 19.4967 29.8989C19.2967 29.6323 19.1967 29.2789 19.1967 28.8389C19.1967 28.4256 19.3001 28.0656 19.5067 27.7589C19.7134 27.4523 20.0034 27.2189 20.3767 27.0589C20.7501 26.8923 21.1767 26.8089 21.6567 26.8089C22.3767 26.8089 22.9601 26.9856 23.4067 27.3389C23.8601 27.6856 24.1101 28.1723 24.1567 28.7989H22.6167C22.6034 28.5589 22.5001 28.3623 22.3067 28.2089C22.1201 28.0489 21.8701 27.9689 21.5567 27.9689C21.2834 27.9689 21.0634 28.0389 20.8967 28.1789C20.7367 28.3189 20.6567 28.5223 20.6567 28.7889C20.6567 28.9756 20.7167 29.1323 20.8367 29.2589C20.9634 29.3789 21.1167 29.4789 21.2967 29.5589C21.4834 29.6323 21.7434 29.7189 22.0767 29.8189C22.5301 29.9523 22.9001 30.0856 23.1867 30.2189C23.4734 30.3523 23.7201 30.5523 23.9267 30.8189C24.1334 31.0856 24.2367 31.4356 24.2367 31.8689C24.2367 32.2423 24.1401 32.5889 23.9467 32.9089C23.7534 33.2289 23.4701 33.4856 23.0967 33.6789C22.7234 33.8656 22.2801 33.9589 21.7667 33.9589Z" fill="white"/>
<path fill-rule="evenodd" clip-rule="evenodd" d="M20 0L35 15H20.95C20.4253 15 20 14.5747 20 14.05V0Z" fill="#258859"/>
</svg>
