<svg width="20" height="20" viewBox="0 0 20 20" fill="none" xmlns="http://www.w3.org/2000/svg">
<path d="M14.5833 2.75001H18.25C18.4931 2.75001 18.7263 2.84658 18.8982 3.01849C19.0701 3.1904 19.1666 3.42356 19.1666 3.66667V18.3333C19.1666 18.5765 19.0701 18.8096 18.8982 18.9815C18.7263 19.1534 18.4931 19.25 18.25 19.25H1.74998C1.50686 19.25 1.27371 19.1534 1.1018 18.9815C0.92989 18.8096 0.833313 18.5765 0.833313 18.3333V3.66667C0.833313 3.42356 0.92989 3.1904 1.1018 3.01849C1.27371 2.84658 1.50686 2.75001 1.74998 2.75001H5.41665V0.916672H7.24998V2.75001H12.75V0.916672H14.5833V2.75001ZM12.75 4.58334H7.24998V6.41667H5.41665V4.58334H2.66665V8.25001H17.3333V4.58334H14.5833V6.41667H12.75V4.58334ZM17.3333 10.0833H2.66665V17.4167H17.3333V10.0833Z" fill="#7C7C7C"/>
</svg>
