<svg width="24" height="19" viewBox="0 0 24 19" fill="none" xmlns="http://www.w3.org/2000/svg">
<path d="M9.65145 0.75H14.2249C16.6508 0.75 18.9774 1.52262 20.6928 2.89788C22.4082 4.27315 23.3719 6.13841 23.3719 8.08333C23.3719 10.0283 22.4082 11.8935 20.6928 13.2688C18.9774 14.6441 16.6508 15.4167 14.2249 15.4167V18.625C8.50808 16.7917 0.504517 14.0417 0.504517 8.08333C0.504517 6.13841 1.46821 4.27315 3.18359 2.89788C4.89897 1.52262 7.22553 0.75 9.65145 0.75ZM11.9382 13.5833H14.2249C15.1258 13.5833 16.0179 13.4411 16.8502 13.1647C17.6825 12.8883 18.4388 12.4831 19.0758 11.9724C19.7128 11.4617 20.2182 10.8554 20.5629 10.1881C20.9077 9.5208 21.0851 8.8056 21.0851 8.08333C21.0851 7.36106 20.9077 6.64587 20.5629 5.97857C20.2182 5.31128 19.7128 4.70497 19.0758 4.19425C18.4388 3.68352 17.6825 3.2784 16.8502 3.002C16.0179 2.72559 15.1258 2.58333 14.2249 2.58333H9.65145C7.83201 2.58333 6.08709 3.1628 4.80056 4.19425C3.51402 5.2257 2.79125 6.62464 2.79125 8.08333C2.79125 11.3925 5.60622 13.5522 11.9382 15.8567V13.5833Z" fill="#2681ED"/>
</svg>
