<svg width="116" height="20" viewBox="0 0 116 20" fill="none" xmlns="http://www.w3.org/2000/svg">
<path d="M19.9478 7.17987C19.8169 6.77841 19.4577 6.49327 19.0327 6.45531L13.2602 5.9357L10.9776 0.639404C10.8093 0.251254 10.426 0 10.0001 0C9.5742 0 9.19089 0.251254 9.02258 0.640312L6.73996 5.9357L0.966512 6.45531C0.542308 6.49418 0.184023 6.77841 0.0523364 7.17987C-0.0793501 7.58133 0.0422653 8.02167 0.363165 8.29925L4.72652 12.0927L3.43987 17.7112C3.34572 18.1243 3.50747 18.5513 3.85324 18.7991C4.03909 18.9322 4.25654 19 4.47581 19C4.66487 19 4.85241 18.9495 5.02072 18.8496L10.0001 15.8995L14.9776 18.8496C15.3419 19.0669 15.801 19.047 16.146 18.7991C16.4919 18.5506 16.6535 18.1234 16.5594 17.7112L15.2727 12.0927L19.6361 8.3C19.957 8.02167 20.0795 7.58209 19.9478 7.17987Z" fill="#FEC430"/>
<path d="M43.9478 7.17987C43.8169 6.77841 43.4577 6.49327 43.0327 6.45531L37.2602 5.9357L34.9776 0.639404C34.8093 0.251254 34.426 0 34.0001 0C33.5742 0 33.1909 0.251254 33.0226 0.640312L30.74 5.9357L24.9665 6.45531C24.5423 6.49418 24.184 6.77841 24.0523 7.17987C23.9206 7.58133 24.0423 8.02167 24.3632 8.29925L28.7265 12.0927L27.4399 17.7112C27.3457 18.1243 27.5075 18.5513 27.8532 18.7991C28.0391 18.9322 28.2565 19 28.4758 19C28.6649 19 28.8524 18.9495 29.0207 18.8496L34.0001 15.8995L38.9776 18.8496C39.3419 19.0669 39.801 19.047 40.146 18.7991C40.4919 18.5506 40.6535 18.1234 40.5594 17.7112L39.2727 12.0927L43.6361 8.3C43.957 8.02167 44.0795 7.58209 43.9478 7.17987Z" fill="#FEC430"/>
<path d="M67.9478 7.17987C67.8169 6.77841 67.4577 6.49327 67.0327 6.45531L61.2602 5.9357L58.9776 0.639404C58.8093 0.251254 58.426 0 58.0001 0C57.5742 0 57.1909 0.251254 57.0226 0.640312L54.74 5.9357L48.9665 6.45531C48.5423 6.49418 48.184 6.77841 48.0523 7.17987C47.9206 7.58133 48.0423 8.02167 48.3632 8.29925L52.7265 12.0927L51.4399 17.7112C51.3457 18.1243 51.5075 18.5513 51.8532 18.7991C52.0391 18.9322 52.2565 19 52.4758 19C52.6649 19 52.8524 18.9495 53.0207 18.8496L58.0001 15.8995L62.9776 18.8496C63.3419 19.0669 63.801 19.047 64.146 18.7991C64.4919 18.5506 64.6535 18.1234 64.5594 17.7112L63.2727 12.0927L67.6361 8.3C67.957 8.02167 68.0795 7.58209 67.9478 7.17987Z" fill="#FEC430"/>
<path d="M91.9478 7.17987C91.8169 6.77841 91.4577 6.49327 91.0327 6.45531L85.2602 5.9357L82.9776 0.639404C82.8093 0.251254 82.426 0 82.0001 0C81.5742 0 81.1909 0.251254 81.0226 0.640312L78.74 5.9357L72.9665 6.45531C72.5423 6.49418 72.184 6.77841 72.0523 7.17987C71.9206 7.58133 72.0423 8.02167 72.3632 8.29925L76.7265 12.0927L75.4399 17.7112C75.3457 18.1243 75.5075 18.5513 75.8532 18.7991C76.0391 18.9322 76.2565 19 76.4758 19C76.6649 19 76.8524 18.9495 77.0207 18.8496L82.0001 15.8995L86.9776 18.8496C87.3419 19.0669 87.801 19.047 88.146 18.7991C88.4919 18.5506 88.6535 18.1234 88.5594 17.7112L87.2727 12.0927L91.6361 8.3C91.957 8.02167 92.0795 7.58209 91.9478 7.17987Z" fill="#FEC430"/>
<path d="M115.948 7.17987C115.817 6.77841 115.458 6.49327 115.033 6.45531L109.26 5.9357L106.978 0.639404C106.809 0.251254 106.426 0 106 0C105.574 0 105.191 0.251254 105.023 0.640312L102.74 5.9357L96.9665 6.45531C96.5423 6.49418 96.184 6.77841 96.0523 7.17987C95.9206 7.58133 96.0423 8.02167 96.3632 8.29925L100.727 12.0927L99.4399 17.7112C99.3457 18.1243 99.5075 18.5513 99.8532 18.7991C100.039 18.9322 100.257 19 100.476 19C100.665 19 100.852 18.9495 101.021 18.8496L106 15.8995L110.978 18.8496C111.342 19.0669 111.801 19.047 112.146 18.7991C112.492 18.5506 112.654 18.1234 112.559 17.7112L111.273 12.0927L115.636 8.3C115.957 8.02167 116.08 7.58209 115.948 7.17987Z" fill="#FEC430"/>
</svg>
