<svg width="18" height="21" viewBox="0 0 18 21" fill="none" xmlns="http://www.w3.org/2000/svg">
<path d="M13.6603 13.4943C14.5224 12.5835 15.0986 11.4401 15.3179 10.2053C15.5371 8.97055 15.3897 7.69862 14.8939 6.54672C14.3981 5.39482 13.5756 4.41345 12.5281 3.72391C11.4807 3.03437 10.2541 2.6669 9 2.6669C7.74593 2.6669 6.51935 3.03437 5.47186 3.72391C4.42438 4.41345 3.60191 5.39482 3.10611 6.54672C2.61031 7.69862 2.46291 8.97055 2.68215 10.2053C2.90138 11.4401 3.47763 12.5835 4.33967 13.4943C4.83436 12.7049 5.52158 12.0542 6.33678 11.6033C7.15198 11.1525 8.06841 10.9162 9 10.9167C9.93159 10.9162 10.848 11.1525 11.6632 11.6033C12.4784 12.0542 13.1656 12.7049 13.6603 13.4943ZM5.68625 14.8446L9 18.1574L12.3138 14.8446C12.0166 14.2172 11.5474 13.687 10.9608 13.3158C10.3742 12.9446 9.69422 12.7475 9 12.7475C8.30578 12.7475 7.62583 12.9446 7.03921 13.3158C6.45259 13.687 5.98342 14.2172 5.68625 14.8446ZM9 20.7507L3.16634 14.917C2.01256 13.7632 1.22684 12.2932 0.908518 10.6929C0.590198 9.09252 0.753581 7.43373 1.37801 5.92624C2.00243 4.41876 3.05986 3.13029 4.41656 2.22377C5.77326 1.31726 7.36831 0.833405 9 0.833405C10.6317 0.833405 12.2267 1.31726 13.5834 2.22377C14.9402 3.13029 15.9976 4.41876 16.622 5.92624C17.2464 7.43373 17.4098 9.09252 17.0915 10.6929C16.7732 12.2932 15.9874 13.7632 14.8337 14.917L9 20.7507ZM9 8.16667C9.24312 8.16667 9.47628 8.07009 9.64818 7.89818C9.82009 7.72627 9.91667 7.49311 9.91667 7.25C9.91667 7.00688 9.82009 6.77373 9.64818 6.60182C9.47628 6.42991 9.24312 6.33333 9 6.33333C8.75689 6.33333 8.52373 6.42991 8.35182 6.60182C8.17991 6.77373 8.08334 7.00688 8.08334 7.25C8.08334 7.49311 8.17991 7.72627 8.35182 7.89818C8.52373 8.07009 8.75689 8.16667 9 8.16667ZM9 10C8.27066 10 7.57118 9.71027 7.05546 9.19454C6.53973 8.67882 6.25 7.97934 6.25 7.25C6.25 6.52065 6.53973 5.82118 7.05546 5.30546C7.57118 4.78973 8.27066 4.5 9 4.5C9.72935 4.5 10.4288 4.78973 10.9445 5.30546C11.4603 5.82118 11.75 6.52065 11.75 7.25C11.75 7.97934 11.4603 8.67882 10.9445 9.19454C10.4288 9.71027 9.72935 10 9 10Z" fill="#7C7C7C"/>
</svg>
