<svg width="26" height="20" viewBox="0 0 26 20" fill="none" xmlns="http://www.w3.org/2000/svg">
<path d="M19.7165 7.78525C20.8508 8.22812 22.1354 8.35923 23.3719 8.15833V18.3333C23.3719 18.5764 23.2514 18.8096 23.037 18.9815C22.8225 19.1534 22.5317 19.25 22.2285 19.25H1.64788C1.34464 19.25 1.05382 19.1534 0.839401 18.9815C0.624978 18.8096 0.504517 18.5764 0.504517 18.3333V3.66666C0.504517 3.42355 0.624978 3.19039 0.839401 3.01848C1.05382 2.84657 1.34464 2.75 1.64788 2.75H16.626C16.5505 3.04608 16.5117 3.35316 16.5117 3.66666C16.5098 4.75571 16.9935 5.80942 17.8757 6.63758L12.0079 10.7094L4.67438 5.71816L3.19486 7.11516L12.0217 13.1239L19.7165 7.78525ZM22.2285 6.41666C21.778 6.41666 21.332 6.34553 20.9158 6.20733C20.4997 6.06913 20.1216 5.86657 19.803 5.61121C19.4845 5.35585 19.2319 5.05269 19.0595 4.71904C18.8871 4.3854 18.7984 4.0278 18.7984 3.66666C18.7984 3.30553 18.8871 2.94793 19.0595 2.61428C19.2319 2.28064 19.4845 1.97748 19.803 1.72212C20.1216 1.46676 20.4997 1.2642 20.9158 1.126C21.332 0.987795 21.778 0.916664 22.2285 0.916664C23.1382 0.916664 24.0107 1.2064 24.6539 1.72212C25.2972 2.23785 25.6586 2.93732 25.6586 3.66666C25.6586 4.39601 25.2972 5.09548 24.6539 5.61121C24.0107 6.12693 23.1382 6.41666 22.2285 6.41666Z" fill="#FFB422"/>
</svg>
