<svg width="18" height="18" viewBox="0 0 18 18" fill="none" xmlns="http://www.w3.org/2000/svg">
<path d="M6.5855 7.79183C7.44564 9.30294 8.69706 10.5544 10.2082 11.4145L11.0185 10.2797C11.1488 10.0972 11.3415 9.96881 11.5601 9.91881C11.7787 9.86881 12.008 9.90066 12.2047 10.0083C13.5011 10.7168 14.9329 11.143 16.4058 11.2587C16.6356 11.2769 16.8502 11.3811 17.0067 11.5505C17.1631 11.7198 17.25 11.942 17.25 12.1726V16.2628C17.25 16.4897 17.1659 16.7086 17.0138 16.8771C16.8618 17.0456 16.6526 17.1517 16.4268 17.1748C15.941 17.2253 15.4515 17.25 14.9583 17.25C7.11167 17.25 0.75 10.8883 0.75 3.04167C0.75 2.5485 0.77475 2.059 0.825167 1.57317C0.848317 1.34739 0.954402 1.13823 1.12289 0.986164C1.29138 0.834102 1.51029 0.749951 1.73725 0.75H5.82742C6.05802 0.749971 6.28015 0.836856 6.44954 0.99333C6.61893 1.1498 6.72312 1.36437 6.74133 1.59425C6.85704 3.06714 7.28315 4.49887 7.99167 5.79533C8.09934 5.99202 8.13119 6.22135 8.08119 6.43993C8.03119 6.65851 7.90281 6.85119 7.72033 6.9815L6.5855 7.79183ZM4.27367 7.18958L6.01533 5.94567C5.52105 4.87875 5.18241 3.74644 5.00975 2.58333H2.5925C2.587 2.7355 2.58425 2.88858 2.58425 3.04167C2.58333 9.87633 8.12367 15.4167 14.9583 15.4167C15.1114 15.4167 15.2645 15.4139 15.4167 15.4075V12.9903C14.2536 12.8176 13.1212 12.4789 12.0543 11.9847L10.8104 13.7263C10.3096 13.5317 9.82317 13.302 9.35475 13.0388L9.30158 13.0086C7.50361 11.9853 6.01467 10.4964 4.99142 8.69842L4.96117 8.64525C4.698 8.17683 4.46826 7.69039 4.27367 7.18958Z" fill="#7C7C7C"/>
</svg>
